<?xml version="1.0" encoding="utf-8"?>
<!-- Generator: Adobe Illustrator 19.0.0, SVG Export Plug-In . SVG Version: 6.00 Build 0)  -->
<svg version="1.1" id="Layer_1" xmlns="http://www.w3.org/2000/svg" xmlns:xlink="http://www.w3.org/1999/xlink" x="0px" y="0px"
	 viewBox="0 0 792 612" style="enable-background:new 0 0 792 612;" xml:space="preserve">
<style type="text/css">
	.st0{opacity:0.2;}
	.st1{fill:#6CC5E9;}
	.st2{fill:#262262;}
	.st3{fill:#2B3990;}
	.st4{fill:#27AAE1;}
	.st5{fill:#1C75BC;}
	.st6{fill:none;stroke:#2E3192;stroke-width:1.0595;stroke-miterlimit:10;}
	.st7{font-family:'Montserrat-Regular';}
	.st8{font-size:12px;}
	.st9{letter-spacing:1;}
	.st10{fill:#00AEEF;}
	.st11{font-family:'Montserrat-Hairline';}
	.st12{font-size:36.9144px;}
	.st13{letter-spacing:3;}
	.st14{fill:none;}
</style>
<g id="XMLID_123_" class="st0">
	
		<ellipse id="XMLID_130_" transform="matrix(-0.9929 0.119 -0.119 -0.9929 684.0532 439.583)" class="st1" cx="328.9" cy="240.2" rx="156.8" ry="171.3"/>
	<ellipse id="XMLID_129_" class="st2" cx="-239" cy="303.5" rx="156.8" ry="171.3"/>
	<ellipse id="XMLID_128_" class="st3" cx="-28.9" cy="434.1" rx="156.8" ry="171.3"/>
	<ellipse id="XMLID_127_" class="st4" cx="228" cy="403.2" rx="156.8" ry="171.3"/>
	<ellipse id="XMLID_126_" class="st3" cx="-123.2" cy="124.9" rx="156.8" ry="171.3"/>
	<ellipse id="XMLID_125_" class="st4" cx="130.7" cy="128.1" rx="156.8" ry="171.3"/>
	<ellipse id="XMLID_124_" class="st5" cx="10.9" cy="247.2" rx="156.8" ry="171.3"/>
</g>
<g id="XMLID_23_">
	<rect id="XMLID_13_" x="130.5" y="317.7" class="st6" width="531" height="175.4"/>
	<g id="XMLID_22_">
		<text id="XMLID_16_" transform="matrix(1 0 0 1 142.6904 224.598)" class="st7 st8 st9">JORDAN FRED</text>
		<text id="XMLID_18_" transform="matrix(1 0 0 1 142.6665 282.598)" class="st7 st8 st9">NIMBUS</text>
		
			<ellipse id="XMLID_8_" transform="matrix(-0.9929 0.119 -0.119 -0.9929 871.5858 221.7702)" class="st1" cx="429.2" cy="136.9" rx="9.2" ry="10.1"/>
		<ellipse id="XMLID_7_" class="st2" cx="395.8" cy="140.6" rx="9.2" ry="10.1"/>
		<ellipse id="XMLID_6_" class="st3" cx="408.1" cy="148.3" rx="9.2" ry="10.1"/>
		<ellipse id="XMLID_5_" class="st4" cx="423.2" cy="146.5" rx="9.2" ry="10.1"/>
		<ellipse id="XMLID_4_" class="st3" cx="402.6" cy="130.1" rx="9.2" ry="10.1"/>
		<ellipse id="XMLID_3_" class="st4" cx="417.5" cy="130.3" rx="9.2" ry="10.1"/>
		<ellipse id="XMLID_2_" class="st5" cx="410.5" cy="137.3" rx="9.2" ry="10.1"/>
		<text id="XMLID_19_" transform="matrix(1 0 0 1 200.5722 151.139)" class="st10 st11 st12 st13">DENVER</text>
		<text id="XMLID_14_" transform="matrix(1 0 0 1 450.0468 150.2806)" class="st3 st7 st12 st9">CLOUD</text>
		<rect id="XMLID_10_" x="130.5" y="204.7" class="st6" width="531" height="30.8"/>
		<rect id="XMLID_12_" x="130.5" y="261.7" class="st6" width="531" height="30.8"/>
		<text id="XMLID_11_" transform="matrix(1 0 0 1 304.3157 187.9328)" class="st11 st8">CERTIFICATE OF AUTHENTICITY</text>
		<rect id="XMLID_17_" x="142.7" y="326.6" class="st14" width="507.3" height="156"/>
		<text id="XMLID_21_" transform="matrix(1 0 0 1 142.6668 335.5018)"><tspan x="0" y="0" class="st7 st8 st9">Our relationship was precipitous. I felt it appropriate to gift you a </tspan><tspan x="0" y="14.4" class="st7 st8 st9">nimbus. Now we might weather the storm. </tspan></text>
	</g>
</g>
</svg>
